<svg xmlns="http://www.w3.org/2000/svg" fill-rule="evenodd" stroke-miterlimit="1.414" viewBox="0 0 711 197" clip-rule="evenodd" stroke-linejoin="round">
  <path fill-rule="nonzero" d="M236.39 72.194h2.7c2.042 0 3.863-.32 5.464-.96 1.6-.64 2.952-1.52 4.052-2.642 1.1-1.12 1.94-2.45 2.522-3.992.58-1.54.87-3.232.87-5.073 0-1.8-.3-3.482-.9-5.043-.6-1.56-1.45-2.9-2.552-4.022-1.1-1.12-2.45-2-4.052-2.64-1.6-.642-3.402-.962-5.403-.962h-2.7v25.334zm-11.767-35.3h17.41c3.08 0 5.973.62 8.674 1.862 2.702 1.24 5.063 2.89 7.084 4.953 2.03 2.06 3.62 4.46 4.78 7.2 1.16 2.74 1.74 5.61 1.74 8.61 0 2.96-.57 5.81-1.71 8.55-1.14 2.74-2.72 5.15-4.74 7.23s-4.38 3.74-7.08 4.98c-2.7 1.24-5.61 1.86-8.73 1.86h-17.41V36.89zm56.25 29.776c0 1.002.18 1.932.54 2.793.36.86.85 1.61 1.47 2.25.62.64 1.363 1.142 2.223 1.502.86.36 1.79.54 2.792.54.96 0 1.87-.18 2.73-.54.862-.36 1.602-.86 2.222-1.5.62-.64 1.12-1.382 1.5-2.222.382-.84.572-1.74.572-2.702 0-.96-.19-1.87-.57-2.73-.38-.86-.88-1.61-1.502-2.25-.62-.64-1.36-1.14-2.22-1.5-.86-.36-1.772-.54-2.732-.54-1 0-1.93.18-2.792.54-.86.36-1.6.86-2.22 1.5-.62.64-1.112 1.37-1.472 2.19-.36.82-.54 1.71-.54 2.67zm13.688-15.307h10.93V82.16h-10.93v-3.422c-2.32 2.92-5.46 4.382-9.42 4.382-2.24 0-4.3-.41-6.18-1.23-1.88-.82-3.52-1.972-4.92-3.452s-2.49-3.222-3.27-5.223c-.78-2-1.17-4.183-1.17-6.544 0-2.2.38-4.29 1.14-6.27.76-1.98 1.82-3.71 3.18-5.19 1.36-1.48 2.99-2.65 4.87-3.51 1.88-.86 3.96-1.29 6.25-1.29 3.84 0 7.03 1.34 9.55 4.02v-3.06zm30.08 26.594l-14.89-26.594h12.61l8.23 15.788 7.99-15.78h12.49l-24.74 46.16h-12.19l10.51-19.57zm42.26-17.53V82.16h-10.86V60.428h-3.6v-9.065h3.6v-9.245h10.86v9.245h6.19v9.065h-6.19zm21.08 6.183c0 1.042.19 1.992.57 2.853.38.86.88 1.61 1.5 2.25.62.64 1.36 1.142 2.22 1.502.86.36 1.77.54 2.73.54s1.87-.18 2.74-.54c.86-.36 1.6-.86 2.22-1.5.62-.64 1.12-1.392 1.5-2.252.38-.86.57-1.79.57-2.792 0-.96-.19-1.87-.57-2.73-.38-.86-.88-1.61-1.5-2.25-.62-.64-1.36-1.14-2.22-1.5-.86-.36-1.77-.54-2.73-.54s-1.87.18-2.73.54c-.86.36-1.6.86-2.22 1.5-.62.64-1.12 1.38-1.5 2.22-.38.84-.57 1.74-.57 2.7zm-11.46-.12c0-2.28.46-4.41 1.38-6.392.92-1.982 2.2-3.703 3.85-5.163 1.64-1.46 3.59-2.612 5.85-3.452 2.27-.84 4.74-1.26 7.42-1.26 2.64 0 5.1.41 7.36 1.23 2.26.82 4.22 1.96 5.88 3.422 1.66 1.46 2.95 3.2 3.87 5.223.92 2.02 1.38 4.252 1.38 6.693 0 2.45-.47 4.68-1.41 6.7-.94 2.02-2.23 3.76-3.87 5.23-1.64 1.46-3.61 2.59-5.91 3.39-2.3.8-4.79 1.2-7.47 1.2-2.64 0-5.08-.4-7.32-1.2-2.24-.8-4.17-1.94-5.79-3.42s-2.89-3.25-3.81-5.31c-.92-2.06-1.38-4.35-1.38-6.87zm43.23-15.127h10.86v3.902c1.48-1.8 2.98-3.012 4.5-3.632 1.52-.62 3.3-.93 5.35-.93 2.17 0 4.02.35 5.56 1.05 1.54.7 2.85 1.69 3.94 2.972.88 1.04 1.48 2.2 1.8 3.48.32 1.282.48 2.743.48 4.384v19.57h-10.86V66.61c0-1.52-.11-2.75-.33-3.69-.22-.94-.61-1.692-1.17-2.252-.48-.48-1.02-.82-1.62-1.02-.6-.2-1.24-.3-1.92-.3-1.84 0-3.25.55-4.23 1.65-.98 1.1-1.47 2.67-1.47 4.713v16.45h-10.87V51.37zm-173.08 77.502h23.36c0 2.4-.1 4.583-.3 6.544-.2 1.96-.6 3.78-1.2 5.46-.84 2.36-1.98 4.45-3.42 6.27-1.44 1.82-3.13 3.34-5.08 4.56-1.94 1.22-4.07 2.15-6.39 2.79-2.32.64-4.76.96-7.32.96-3.52 0-6.73-.58-9.63-1.74-2.9-1.17-5.39-2.8-7.47-4.9-2.08-2.1-3.7-4.62-4.86-7.57-1.16-2.94-1.74-6.2-1.74-9.76 0-3.52.57-6.76 1.71-9.7 1.14-2.94 2.76-5.46 4.87-7.54 2.1-2.08 4.63-3.7 7.59-4.86 2.96-1.16 6.26-1.74 9.91-1.74 4.72 0 8.87 1.02 12.43 3.06 3.56 2.04 6.39 5.2 8.47 9.48l-11.17 4.62c-1.04-2.48-2.39-4.26-4.05-5.34-1.66-1.08-3.55-1.62-5.67-1.62-1.76 0-3.36.33-4.8.99-1.44.66-2.67 1.6-3.69 2.82-1.02 1.22-1.82 2.69-2.4 4.41-.58 1.72-.87 3.64-.87 5.76 0 1.92.25 3.7.75 5.34.5 1.64 1.25 3.06 2.25 4.26 1 1.2 2.24 2.13 3.72 2.79 1.48.66 3.2.99 5.17.99 1.16 0 2.28-.13 3.36-.39s2.05-.68 2.92-1.26c.86-.58 1.57-1.33 2.13-2.26.56-.92.94-2.04 1.14-3.36h-9.67v-9.13zm52.29 5.463c-.36-1.52-1.1-2.74-2.22-3.662-1.12-.92-2.48-1.38-4.08-1.38-1.68 0-3.05.44-4.11 1.32-1.06.88-1.73 2.12-2.01 3.722h12.43zm-12.73 6.304c0 4.682 2.2 7.023 6.61 7.023 2.37 0 4.15-.96 5.35-2.88h10.51c-2.12 7.043-7.43 10.565-15.91 10.565-2.6 0-4.98-.39-7.14-1.17-2.16-.78-4.01-1.892-5.55-3.333-1.54-1.44-2.73-3.162-3.57-5.163-.84-2-1.26-4.242-1.26-6.723 0-2.56.4-4.87 1.2-6.93.8-2.06 1.95-3.81 3.43-5.25s3.27-2.55 5.37-3.33c2.1-.78 4.47-1.17 7.11-1.17 2.6 0 4.94.39 7.02 1.17 2.08.78 3.84 1.91 5.28 3.39 1.44 1.48 2.54 3.29 3.3 5.44.76 2.14 1.14 4.56 1.14 7.24v1.14h-22.88zm39.32-1.982c0 1.04.19 1.992.57 2.852.38.86.88 1.61 1.51 2.25.62.642 1.36 1.142 2.22 1.502.86.36 1.78.54 2.74.54s1.87-.18 2.74-.54c.86-.36 1.6-.86 2.22-1.5.62-.64 1.12-1.39 1.5-2.252.38-.86.57-1.79.57-2.79 0-.962-.19-1.872-.57-2.733-.38-.86-.88-1.62-1.5-2.26-.62-.64-1.36-1.14-2.22-1.5-.86-.36-1.77-.54-2.74-.54-.96 0-1.87.18-2.73.54-.86.36-1.6.86-2.22 1.5-.62.64-1.12 1.38-1.5 2.22-.38.84-.57 1.74-.57 2.7zm-11.46-.12c0-2.28.46-4.412 1.38-6.393.92-1.98 2.2-3.702 3.85-5.163 1.64-1.46 3.59-2.61 5.85-3.452 2.26-.84 4.73-1.26 7.41-1.26 2.64 0 5.09.41 7.36 1.23 2.26.82 4.22 1.96 5.88 3.422 1.66 1.46 2.95 3.202 3.87 5.223.92 2.02 1.38 4.252 1.38 6.694s-.47 4.68-1.41 6.7c-.94 2.02-2.23 3.76-3.87 5.23-1.64 1.46-3.61 2.59-5.91 3.39-2.3.8-4.79 1.2-7.47 1.2-2.64 0-5.08-.4-7.32-1.2-2.24-.8-4.17-1.94-5.79-3.42s-2.89-3.25-3.81-5.31c-.92-2.06-1.38-4.35-1.38-6.87zm54.09-15.128V154.2H357.3v-30.8h10.865zm-11.58-11.826c0-.84.16-1.63.48-2.372.32-.74.76-1.39 1.32-1.95s1.21-1 1.95-1.32c.74-.322 1.53-.482 2.37-.482.84 0 1.63.16 2.37.48.74.32 1.39.76 1.95 1.32.56.562 1 1.212 1.32 1.952.32.74.48 1.53.48 2.372 0 .84-.16 1.63-.48 2.37-.32.74-.76 1.392-1.32 1.952s-1.21 1-1.95 1.32c-.74.32-1.53.48-2.37.48-.84 0-1.63-.16-2.38-.48-.74-.32-1.39-.76-1.95-1.32s-1-1.21-1.32-1.95c-.32-.74-.48-1.532-.48-2.372zm19.03 11.826h10.86v3.902c1.48-1.8 2.98-3.01 4.5-3.632 1.52-.62 3.31-.93 5.35-.93 2.16 0 4.01.35 5.56 1.05 1.54.7 2.85 1.69 3.93 2.972.88 1.04 1.48 2.2 1.8 3.482.33 1.28.49 2.74.49 4.382v19.57h-10.87V138.65c0-1.52-.11-2.75-.33-3.69-.22-.94-.61-1.69-1.17-2.252-.48-.48-1.02-.82-1.62-1.02-.6-.2-1.24-.3-1.92-.3-1.84 0-3.26.55-4.24 1.65-.98 1.1-1.47 2.672-1.47 4.713v16.45h-10.9v-30.8zm51.63 9.065V154.2h-10.87v-21.733h-3.91v-9.065h3.9v-4.622c0-2.562.24-4.603.72-6.124.4-1.28 1.04-2.47 1.92-3.572.88-1.1 1.91-2.05 3.09-2.85 1.18-.802 2.45-1.422 3.81-1.862 1.36-.44 2.7-.66 4.02-.66.92 0 1.77.1 2.55.3.78.2 1.57.48 2.37.84v9.485c-.72-.36-1.39-.63-2.01-.81-.62-.18-1.27-.27-1.95-.27-.44 0-.89.07-1.35.21-.46.14-.89.43-1.29.87s-.67 1.07-.81 1.89c-.14.822-.21 1.932-.21 3.333v3.842h7.62v9.065h-7.62zm22.51 6.183c0 1.04.19 1.992.57 2.852.38.86.88 1.61 1.5 2.25.62.642 1.36 1.142 2.22 1.502.86.36 1.77.54 2.73.54s1.87-.18 2.73-.54c.86-.36 1.6-.86 2.22-1.5.62-.64 1.12-1.39 1.5-2.252.38-.86.57-1.79.57-2.79 0-.962-.19-1.872-.57-2.733-.38-.86-.88-1.62-1.5-2.26-.62-.64-1.36-1.14-2.22-1.5-.86-.36-1.77-.54-2.73-.54s-1.87.18-2.73.54c-.86.36-1.6.86-2.22 1.5-.62.64-1.12 1.38-1.5 2.22-.38.84-.57 1.74-.57 2.7zm-11.47-.12c0-2.28.46-4.412 1.38-6.393.92-1.98 2.2-3.702 3.84-5.163 1.64-1.46 3.6-2.61 5.86-3.452 2.26-.84 4.74-1.26 7.42-1.26 2.65 0 5.1.41 7.36 1.23 2.26.82 4.22 1.96 5.88 3.422 1.66 1.46 2.95 3.202 3.87 5.223.92 2.02 1.38 4.252 1.38 6.694s-.47 4.68-1.41 6.7c-.94 2.02-2.23 3.76-3.87 5.23-1.64 1.46-3.61 2.59-5.91 3.39-2.3.8-4.79 1.2-7.47 1.2-2.64 0-5.08-.4-7.32-1.2-2.24-.8-4.17-1.94-5.79-3.42s-2.89-3.25-3.81-5.31c-.92-2.06-1.38-4.35-1.38-6.87zm43.22-15.128h10.87v5.043c1.16-1.84 2.58-3.252 4.26-4.232 1.68-.98 3.65-1.47 5.89-1.47h.93c.34 0 .73.04 1.17.12v10.385c-1.44-.72-3-1.08-4.68-1.08-2.52 0-4.41.75-5.67 2.25-1.26 1.5-1.89 3.692-1.89 6.574V154.2h-10.86v-30.8zm27.98 0h10.87v3.782c2.96-2.84 6.29-4.262 9.97-4.262 4.57 0 8.05 1.92 10.45 5.763 2.44-3.882 5.92-5.823 10.45-5.823 1.44 0 2.8.21 4.08.63 1.28.42 2.39 1.08 3.31 1.98.92.902 1.65 2.072 2.19 3.513.54 1.44.81 3.182.81 5.223v19.99h-10.87V139.01c0-1.56-.11-2.84-.33-3.84-.22-1-.54-1.78-.96-2.342-.42-.56-.91-.94-1.47-1.14-.56-.2-1.16-.3-1.8-.3-3.48 0-5.22 2.54-5.22 7.624v15.19H530.1v-15.19c0-1.56-.1-2.85-.3-3.87-.2-1.022-.49-1.832-.87-2.433-.38-.6-.87-1.01-1.47-1.23-.6-.22-1.3-.33-2.1-.33-.68 0-1.32.1-1.92.3-.605.2-1.135.59-1.595 1.17-.46.58-.82 1.38-1.08 2.4-.26 1.02-.39 2.35-.39 3.99v15.19H509.5v-30.8zm69.64 15.308c0 1 .18 1.932.54 2.792.36.86.85 1.61 1.47 2.25.62.642 1.36 1.142 2.22 1.502.86.36 1.79.54 2.79.54.96 0 1.87-.18 2.73-.54.86-.36 1.6-.86 2.22-1.5.62-.64 1.12-1.38 1.5-2.222.38-.84.57-1.74.57-2.7 0-.962-.19-1.872-.57-2.733-.38-.86-.88-1.62-1.5-2.26-.62-.64-1.36-1.14-2.22-1.5-.86-.36-1.77-.54-2.73-.54-1 0-1.93.18-2.79.54-.86.36-1.6.86-2.22 1.5-.62.64-1.11 1.37-1.47 2.19-.36.82-.54 1.71-.54 2.67zm13.69-15.308h10.92V154.2h-10.92v-3.423c-2.32 2.922-5.46 4.383-9.42 4.383-2.24 0-4.3-.41-6.18-1.23-1.88-.822-3.52-1.972-4.92-3.453-1.4-1.48-2.49-3.222-3.27-5.223-.78-2-1.17-4.182-1.17-6.543 0-2.2.38-4.29 1.14-6.27.76-1.98 1.82-3.71 3.18-5.19 1.37-1.48 2.99-2.65 4.87-3.51 1.88-.86 3.97-1.29 6.25-1.29 3.84 0 7.02 1.34 9.54 4.02v-3.06zm30.43 9.065V154.2H612.4v-21.733h-3.6v-9.065h3.6v-9.245h10.867v9.245h6.187v9.065h-6.186zm21.98-9.065V154.2h-10.87v-30.8h10.86zm-11.59-11.826c0-.84.16-1.63.48-2.372.32-.74.76-1.39 1.32-1.95s1.22-1 1.96-1.32c.74-.322 1.53-.482 2.37-.482.84 0 1.63.16 2.37.48.74.32 1.39.76 1.95 1.32.56.562 1 1.212 1.32 1.952.32.74.48 1.53.48 2.372 0 .84-.16 1.63-.48 2.37-.32.74-.76 1.392-1.32 1.952s-1.21 1-1.95 1.32c-.74.32-1.53.48-2.37.48-.84 0-1.63-.16-2.37-.48-.74-.32-1.39-.76-1.95-1.32s-1-1.21-1.32-1.95c-.32-.74-.48-1.532-.48-2.372zm42.27 21.792c-1.88-1.28-3.78-1.92-5.7-1.92-1.04 0-2.01.18-2.91.54-.9.36-1.69.87-2.37 1.53-.68.66-1.21 1.44-1.59 2.34-.38.902-.57 1.912-.57 3.033 0 1.08.19 2.08.57 2.98.38.9.9 1.68 1.56 2.34.66.66 1.45 1.17 2.38 1.53.92.36 1.9.54 2.94.54 2.04 0 3.94-.7 5.71-2.1v9.25c-2.68 1.16-5.22 1.74-7.63 1.74-2.24 0-4.37-.38-6.39-1.14-2.02-.76-3.8-1.85-5.34-3.27s-2.77-3.12-3.69-5.1c-.92-1.98-1.38-4.19-1.38-6.63 0-2.44.44-4.67 1.32-6.69.88-2.02 2.08-3.76 3.6-5.22s3.33-2.6 5.43-3.42c2.1-.82 4.35-1.23 6.75-1.23 2.64 0 5.08.56 7.32 1.68v9.25zm26.6-2.04c-2-1.04-3.96-1.56-5.88-1.56-1 0-1.81.2-2.43.6-.62.4-.93.94-.93 1.62 0 .36.05.65.15.87.1.22.32.43.66.63s.84.38 1.5.54c.66.16 1.53.36 2.61.6 3 .6 5.25 1.67 6.73 3.212 1.48 1.54 2.22 3.512 2.22 5.913 0 1.8-.36 3.422-1.08 4.863-.72 1.44-1.72 2.65-3 3.632-1.28.98-2.82 1.74-4.62 2.28-1.8.542-3.78.812-5.94.812-4.16 0-8.26-1.18-12.31-3.542l3.96-7.684c3.04 2.08 5.92 3.12 8.65 3.12 1 0 1.82-.22 2.46-.66.64-.44.96-1 .96-1.68 0-.4-.05-.73-.15-.99-.1-.26-.31-.5-.63-.72-.32-.22-.79-.42-1.41-.6-.62-.18-1.43-.372-2.43-.572-3.36-.68-5.71-1.69-7.05-3.03-1.34-1.342-2.01-3.193-2.01-5.554 0-1.72.32-3.272.96-4.653.64-1.38 1.56-2.55 2.76-3.512 1.2-.96 2.65-1.7 4.36-2.22 1.7-.52 3.59-.78 5.67-.78 3.4 0 6.7.66 9.9 1.98l-3.66 7.084zM99.52 1.673c1.734.01 3.47.058 5.2.157 3.31.188 6.61.55 9.885 1.08 8.12 1.32 16.07 3.7 23.57 7.066 9.62 4.31 18.49 10.228 26.18 17.427 7.88 7.38 14.5 16.094 19.48 25.674 4.23 8.13 7.27 16.872 8.99 25.873 1.98 10.314 2.24 20.958.78 31.358-.68 4.892-1.75 9.732-3.19 14.458-1.41 4.642-3.18 9.174-5.29 13.545-2.49 5.19-5.46 10.14-8.85 14.79-3.32 4.55-7.03 8.8-11.09 12.69-4.27 4.1-8.92 7.79-13.87 11.03-4.91 3.21-10.12 5.97-15.54 8.22-5.97 2.48-12.19 4.35-18.53 5.56-5.94 1.14-11.99 1.71-18.04 1.71s-12.1-.56-18.04-1.7c-6.34-1.21-12.56-3.08-18.53-5.56-5.41-2.25-10.62-5-15.53-8.22-4.95-3.23-9.6-6.93-13.87-11.02-4.19-4.02-8.02-8.43-11.42-13.15-3.25-4.51-6.104-9.31-8.52-14.32-2.15-4.46-3.946-9.09-5.37-13.83-1.4-4.63-2.437-9.38-3.11-14.17-1.442-10.3-1.2-20.84.725-31.06 1.68-8.91 4.645-17.58 8.78-25.65 4.97-9.7 11.61-18.52 19.54-25.99 7.74-7.3 16.69-13.28 26.387-17.63 7.5-3.37 15.445-5.75 23.565-7.07 3.278-.53 6.58-.89 9.89-1.08 1.73-.1 3.46-.14 5.2-.15h.61zm-.577 12.675c-1.51.007-3.02.05-4.52.135-2.96.17-5.91.495-8.83.98-6.95 1.15-13.74 3.198-20.16 6.078-8.34 3.74-16.03 8.87-22.7 15.12C35.96 43 30.25 50.48 25.95 58.7c-3.64 6.954-6.28 14.426-7.804 22.127-1.805 9.103-2.062 18.52-.775 27.72 1.17 8.32 3.62 16.45 7.24 24.03 4.26 8.905 10.13 17.024 17.23 23.88 3.7 3.56 7.72 6.78 12 9.602 4.25 2.79 8.75 5.19 13.44 7.16 5.24 2.19 10.71 3.84 16.28 4.91 5.07.97 10.23 1.46 15.38 1.48 5.34.01 10.68-.48 15.92-1.48 5.42-1.04 10.72-2.63 15.82-4.73 4.7-1.94 9.22-4.31 13.49-7.09 4.31-2.8 8.35-6 12.06-9.54 7.14-6.81 13.06-14.89 17.37-23.77 3.71-7.63 6.22-15.83 7.42-24.23 1.31-9.11 1.09-18.44-.64-27.48-1.49-7.8-4.12-15.37-7.78-22.41-4.24-8.16-9.86-15.6-16.53-21.93-6.69-6.34-14.43-11.55-22.83-15.35-6.41-2.9-13.19-4.97-20.13-6.14-2.92-.49-5.87-.83-8.82-1.01-1.5-.09-3.01-.14-4.51-.15h-.8z"/>
  <path d="M148.096 41.376l.09-.235.055-.24.09-.08.06-.06-.01-.06.04-.02.03.02.02.08.07-.02.04-.1.04-.04.04.16v.07l.06-.02-.03-.03-.02-.12.06.01.06-.03.04.01.07-.02.08-.02.17-.08.09-.02.05-.04.04-.01.04 1.03.03.6.04 1 .04.68.03.67.03.68.03.68.03.69.03.52.01.39.02.41.05 1.31.04.82.06 1.42.07 1.67.05 1.09.04.58.05.55.06.16.16 1.67.2.34v.15l-.17.25-.15.91.01.29.06 1.31.04.79.01.1.03.71.05 1.12.01.18.03.64.01.41.03.77.01.23.02.48.02.6.01.26.01.39.07 1.55.02.29.01.29.09 2.13.02.32.02.46.08 1.82.04.88.03.7.04.73.02.45.03.61.03.54.02.65.05 1.14.04.9.04 1 .02.55-.06.06-.04.02-.08.01-.04-.01-.04.02-.09.05-.17.1-.09.06-.09.02-.05.02-.04.05-.05.02-.11.1-.14.19-.04.05-.07.04-.07.02-.08.02-.1-.02-.05-.04-.08-.08-.09-.08-.03-.04-.18-.08-.09.02-.1.05-.13.05-.08.05-.13.04h-.09l-.08.07-.04.02-.04.05-.05.09-.08.08-.1.22-.07.09-.08.08-.03.05-.04.01-.17.17-.07.09-.04.09-.02.09v.16l.03.15h.04l.07.11-.04.02.11.06.06.03.12.13.07.09.06.11.13.2.03.03.07.12.03.05.03.02.05.09.08.04.02.04.02-.01.04.06.04.16.02.09.07.16.02.09V86l.02.08.01.07-.01.06.05.06v.06l.06.14.04-.01.02.07-.03.01.04.06.03.07.07.11.04.07.12.09.04.07.04.01.02.03.06.13.05.13.01.17-.02.07.01.04-.03.08-.01.1-.06.16.01.04-.03.11-.1.19-.06.15.04.23.13.07v.07l-.05.06-.06.07.12.07V89l-.11.096-.09.03-.01.115-.04.19-.03.04-.06.06-.11.07-.06.01-.14.04-.2.06-.26.09v.09l.28.1.27.02.03.08.1.11.07.18h.04l.16-.02.02-.14.08.09.04.07.03.18-.01.04v.09l-.03.09-.05.15-.01.08.02.05-.01.1.02.16.03.08.13.23.05.12.04.19.03.06.01.09-.02.11-.03.07-.02.12-.03.05-.05.06-.08.15-.02.06-.06.12-.03.09V93l-.02.05v.123l.01.105-.01.15.03.036-.03.15-.04.11-.06.07-.15.11-.09.06-.09.08-.04.005-.09.05-.08.07-.05.08-.08.09-.04.1-.06.1-.06.17-.04.08-.01.04-.01.09-.03.06-.02.17.02.07-.01.12-.02.03-.02.15v.11l-.02.08-.04.16-.05.1-.16.24-.03.04-.03-.03-.05.07-.05.11-.06.17-.07.08-.08.18-.06.1-.08.17v.03l-.04.08-.01.09-.02.06-.01.11-.02.11-.034.1.01.14-.01.08.01.25.02.12.03.06.04.05.01.03-.01.11.01.11-.04.16-.01.1-.07.07-.03.05-.07.04-.07.07-.07.05-.06.05-.11.11-.04.03-.12.18-.03.08-.01.1.01.06.03.07-.01.02.01.1.02.06.07.13.03.03.03.1.01.06.05.19v.12l.01.12-.03.14-.12.42-.01.1-.04.13-.02.17-.01.03.02.09-.01.1v.07l.02.04.01.1.03.05v.06l.01.06v.05l.03.1-.02.25-.03.13.02.07-.05.03-.05.08-.08.08-.07.06-.05.02-.1.09-.11.16-.02.05-.02.11.02.16.04.22.03.13.01.09.03.11.03.04.04.1.03.11.01.11v.05l-.04.09-.06.05-.06.01-.12-.01-.08-.03-.13-.1-.2-.14-.1.01-.02-.01-.11-.01-.04.04h-.11l-.08-.01-.04.01-.08.03-.08.1-.1.1v.11l.11.04.08.04.04.11.09.17.09.12.15.15.08.1.1.14.14.06.26.12v.09l-.24.09-.28.11-.05.06-.08.06-.02.03-.08.03-.15.11-.08.02-.09.06-.1.09-.05.06-.05.08-.03.12.02.06.01.07.01.03-.02.03.05.12.07.18.03.06v.14l-.04.09v.17l-.05.26-.01.09-.03.06-.082.1-.09.12-.09.08-.06.03-.04.04-.14.1-.08.06-.032.06-.03.01-.07.06-.09.06-.06.06-.05.07-.01.06-.02.02-.05.15-.02.07.04.03.02.06v.06l.06.14.06.07.1.14.08.09.07.08.09.01.04.01.06.08h-.04l.13.18.04.09.05.05.02.04.07.1.09.09.05.18v.05l-.02.15-.01.05-.07.09-.13.09-.13.05-.13.02-.09.05-.14.1-.05.04-.08.22-.01.14.02.04-.03.05.02.14-.01.05.01.13.02.09-.01.1v.22l-.01.1-.03.09-.04.09-.03.13-.01.05-.064.09v.14l.02.08-.07.2-.04.1-.03.05-.04.01-.09.06-.09.04-.14.01-.18-.02-.09-.02-.09.01-.13-.01-.18.04-.19.07-.13.1-.03.04-.08.09-.14.12-.04.04-.09.07-.09.08-.13.1-.08.09-.09.08-.08.06-.11.14-.26.26-.07.09-.02.04-.04.05-.12.12-.11.07-.09.07-.06.08-.08.07-.03.01-.09.07-.1.1-.07.12-.02.05h-.03l-.05.06-.05.05-.33.27-.06.08-.02.02-.04.08-.08.07-.03.05-.02.01-.09.1-.05.06-.1.08-.07.07-.08.11-.04.08-.12.14-.02.05-.07.06-.12.14-.08.08-.04.08-.1.13-.06.09-.1.19-.01.04-.07.15-.07.15-.07.15h-.02l-.06.12-.05.06-.1.21-.07.12-.1.13-.06.07-.11.09-.25.1-.04.21h-.07l-.09-.17-.15-.14-.17.08-.03.03-.18.08-.11.1-.03.04-.01.04-.04.05-.04.09-.09.12-.13.13-.12.07v.03l.01.03-.03.1-.06.09-.05.09-.04.09v.04l.02.09v.15l-.02.04-.06.11-.1.07-.09.02-.056-.01-.118-.03-.16-.05-.09-.02-.128-.01-.08.01-.1.04-.1.06-.1.03-.17.01-.05.01-.09.04-.08.06-.06.08-.12.09-.11.03-.21.08-.14.1-.15.12-.08.08-.18.14-.21.13-.07.05-.11.11-.12.11-.11.08-.09.04-.16.06-.16.02-.17.01-.11.02-.05-.01-.133-.03-.08-.04-.05-.04-.09-.1-.06-.1-.04-.08-.05-.15-.02-.05-.06-.19-.04-.09-.06-.24-.05-.15-.04-.14-.05-.07-.03-.05-.06-.07-.11-.12-.08-.06-.25-.19-.18-.09-.15-.03-.08-.01-.11.01-.14.02-.11.09-.13.07-.13.11-.04.05-.08.11-.04.09-.14.19-.12.143-.08.08-.12.14-.11.1-.04.04-.11.1-.23.16-.12.08-.11.05-.1.03-.04.03-.07.11-.09.06-.05.003-.11.12-.05.05-.17.24-.05.13-.01.16.01.07-.01.05.01.13-.01.05.01.04-.01.12-.04.08-.06.13-.07.19-.1.18v.19l.11.27.08.21-.02.11-.02.07-.05.09-.1.05-.1-.01-.1-.03-.1-.01-.08-.03-.15-.1-.16-.06-.09-.02h-.12l-.07.01-.1.03-.04.01-.07.03-.18-.02-.21-.05-.24-.03-.21-.01-.06.01-.1.03-.21.02-.13.03-.18.12-.06.06-.12.14-.04.05-.01.07-.03.02-.06.11v.25l.02.13.04.12.05.09.03.07.01.16-.02.1-.06.09-.07.07-.07.04-.15.03h-.09l-.15.03-.06.03-.12.04-.09.05-.08.12-.075.197-.02.12-.01.1-.02.07-.03.06-.08.11-.1.07-.1.04-.08.06-.09.14-.01.06.01.08.06.21.03.08.04.13.07.26.05.12.02.06.02.05v.13l-.07-.01-.08.1-.19.06v.05l.19.06.16.1v.12l.04.25.01.06.02.07-.01.06.01.11-.01.08v.05l-.02.18-.04.13-.05.09-.06.1-.09.11-.16.14-.1.07-.13.07-.16.05-.09.01-.07-.01-.11-.02-.07-.03-.18-.09-.1-.03-.08-.01-.08.01-.05.03-.04.04-.03.07-.01.06.01.27.03.14.01.11.06.13.02.06.15.24.04.05.11.1.1.07.07.06.09.055.12.11.058.06.02.04.05.04.09.08.12.15.04.07.04.09.01.05.01.18.01.065-.01.16.03.11.02.14v.05l-.08.1-.1.09-.06.1-.06.07-.03.04-.1.27-.02.13-.01.07v.1l.04.12.055.09.06.05.1.08.07.07.17.24.02.08.03.02.06.02.04-.01.01.03v.08l-.06.17-.06.09-.1.06-.06.02-.1.01-.23-.07-.09-.04-.07-.04-.14-.1-.09-.09-.16-.23-.11-.09-.13-.07-.07-.03-.07-.01h-.07l-.09.02-.13.09-.06.08-.04.03-.04.05-.09.06-.16.16-.17.11v.06l.095.07.12.12.01.13-.01.11.02.08-.02.11-.04.12-.06.08-.06.1-.1.15-.05.06-.07.06-.05.026-.19.14-.07.03-.18.11-.13.01-.12-.09h-.06l-.08.11-.24.03-.11-.08-.11-.12-.06-.06-.1-.08-.07-.05-.08-.1-.01-.06.03-.15.06-.09.08-.07.08-.15.12-.15.05-.04.08-.05.09-.1.06-.08.05-.08.01-.1-.01-.11-.01-.05-.02-.11-.02-.07-.1-.17-.02-.13.02-.13.14-.05v-.04l-.29-.29-.21-.08-.06-.08-.116-.19-.08-.15-.04-.09-.07-.12-.09-.08-.11-.06-.05-.05-.06-.015-.09-.04-.04-.01-.12.01-.09.03-.1.05-.067.02-.15.02-.12.02-.04-.01-.07-.09-.02-.06-.01-.11-.04-.14-.1-.26-.11-.21-.07-.09-.06-.06-.14-.1-.08-.03-.12-.02-.17.01-.1.02-.14.04-.14.06-.07.04-.04.047-.07.15-.02.14-.03.04-.03.13-.02.12-.04.12-.09.21-.04.04-.05.03-.13.11-.2.133-.17.09-.1.05-.06.044-.093.07-.07.03-.08.09-.03.06-.03.15-.04.12-.1.21-.06.11-.06.11-.05.12-.06.16-.04.28v.41h-.03l-.01-.17-.02-.17-.16.26-.07.13-.04.08-.09.17-.02.08-.07.03-.1.08-.02.09-.05.03-.03-.01-.06.09-.03.14-.02.28v.07l.08.19.04.14.04.16.01.12-.02.06-.04.33-.06.31-.06.13-.18.213-.07.1-.13.14-.11.07-.23.1-.08.04-.27.06-.05.03-.05.06-.04.07-.14.11-.06.04-.12.1-.12.11-.05.06-.11.23-.03.11.01.23.01.09.02.1.02.04.07.09.07.05.06.05.07.04.12.09.1.1.08.14.04.1.01.18.03.16.03.056.07.05h.07l.14.06.22.1v.16l-.18.09-.23-.02-.06-.14-.01.05.15.3.04.08.03.16.02.01.01.1v.04l-.03.11-.01.04-.04.16-.08.19-.03.14-.02.12.02.1.06.14.04.16.02.2.01.04.01.08.04.1.05.1.07.14.06.21.07.26.02.1.01.14-.02.09v.14l.03.054-.01.22-.03.06-.02.1-.044.1-.08.11-.12.1-.05.06-.11.05-.18.06h-.09l-.11.015-.18.01-.05-.01-.11.02-.05-.01-.06-.04-.18-.05-.2-.07-.06-.02-.05.02-.05-.02.05-.03-.09-.02-.21.01-.08.02-.05.04-.05-.01-.14.06-.07.04-.08.07-.13.16-.19.15-.14.11-.14.095-.2.12v.15l.21.32.16.22-.03.39-.01.06-.04.13-.05.12-.03.1-.04.17-.02.12.01.27.02.14-.01.13-.02.12-.02.1-.03.09-.044.09-.06.14-.02.1-.01.11-.02.07-.004.09-.05.224-.08.24-.04.08-.07.11-.04.08-.08.08-.08.06-.13.06-.14.05-.37.06-.22.03-.27.08-.11.01-.02.01-.08-.01-.1.03-.07-.04-.07-.02-.2-.1-.1-.01-.08.03-.1.05-.09.06-.1.04-.05.01-.23.09-.11.04-.05.02-.15.04-.096.03-.06.01-.217.05-.05.02-.26.08-.17.05-.11.045-.02.02-.07.02-.09.05-.05-.18-.02.21-.11.047-.07.04-.11.05-.23.1-.24.1-.21.09-.26.13h-.22l-.12-.1-.09-.11-.17-.05-.21-.08-.1-.06-.08-.06-.12-.1-.04-.06-.07-.11-.1-.18-.02-.05-.09-.34-.04-.3-.01-.08-.03-.22.01-.08-.03-.05-.04-.1-.07-.15-.05-.1-.1-.09-.1-.06-.137-.08-.14-.06-.19-.09-.22-.17-.18-.15-.1-.11-.04-.06-.05-.04-.07-.11-.13-.16-.04-.06-.11-.13-.15-.26-.11-.22-.09-.17-.04-.06-.04-.04-.06-.07-.09-.08-.09-.06-.21-.12-.1-.08-.1-.05-.07-.07-.12-.08-.07-.02-.11-.01-.04.02h-.23l-.17-.02h-.07l-.37-.02-.11.02-.08.02-.14.01-.17-.02-.18-.06-.11-.05-.14-.09-.09-.04-.1-.08-.18-.1-.07-.06-.02-.03-.08-.05-.04-.07-.03-.02-.19-.16-.11-.11-.1-.17-.03-.06-.04-.17-.03-.08-.05-.15-.04-.19-.025-.14-.01-.11v-.08l-.01-.02v-.13l-.03-.08.02-.106v-.22l-.01-.09.01-.03-.01-.13-.02-.16-.03-.156-.04-.15-.09-.2-.09-.15-.15-.18-.106-.08-.1-.04-.19-.15v-.16l.27-.63.19-.11.04-.2.01-.12-.01-.13v-.05l-.03-.16-.04-.16-.06-.12-.11-.14h-.11l-.06-.04.02-.04-.03-.03-.093-.01-.1.02-.06.06-.11.17h-.23l-.29-.01-.17-.03-.2.08-.13.07-.21.13-.13.09-.04.02-.11.09-.04.05-.05.02-.04.05-.09.06-.02-.02-.08.04-.07.02h-.12l-.1-.045-.15-.12-.19-.18-.25-.3h-.09l-.04.3-.1.31-.09-.02-.12.03-.1.06-.06.07-.02.05-.08.11-.05.13-.07.18-.11.18-.03.04-.06.1-.06.1-.03.03-.1.06-.09.1-.05.03-.06.02-.22.11-.23.13-.25.07-.17.04-.1.05-.05.04-.07.06-.07.08-.09.15-.02.11.06.09v.19l-.14.11-.16.19-.09.19-.08.14-.06.09-.19.2-.05.02-.02.03-.06.03-.05.06-.09.05-.13.01-.18-.02-.11.01h-.13l-.05-.01-.08.01-.04.01h-.07l-.23.04-.09.01h-.15l-.16-.03-.11-.05-.06-.05-.14-.08-.07-.05-.12-.06-.09-.03-.18-.038h-.14l-.05.03-.12.08-.06.06-.15.01-.08.04-.08.11-.02.1-.03.02-.1.13-.05.05-.17.19-.06.06-.06.07-.13.06-.06.01-.11-.02-.08-.03-.07-.032-.07-.05-.07-.06-.13-.16-.043-.07-.03-.08-.02-.09-.02-.32-.02-.1-.02-.08-.07-.113-.06-.1-.1-.09-.2-.16-.15-.1-.08-.04-.13-.09-.16-.13-.21-.09-.11-.04-.19-.05-.07-.01-.03-.02-.26-.04-.1-.03h-.04l-.2-.03-.03-.02-.1.03-.08-.03-.01-.03-.08-.02-.09-.01-.08-.01-.29-.01-.16-.03-.26-.11-.03-.02h-.1l-.15-.04-.1-.07-.14-.18-.06-.07-.18-.18-.08-.07-.16-.11-.12-.05-.12-.04-.17-.08-.2-.04-.05.01H79l-.13.02-.19.04-.14.04-.36.12-.166.07-.13.03-.165.03-.07.02-.17.025-.06.01-.06.03-.11.05-.07.06-.06-.02-.12-.01h-.05l-.15.06-.15.085-.12.08-.12.12-.05.07-.07.16-.05.24-.01.17-.07.265-.01.05-.06.19-.04.07-.07.11-.04.03-.14.08-.08.03-.22.04-.04-.01-.11-.04-.05-.03-.13-.04-.11-.05-.23-.11-.15-.08-.11-.07-.11-.01-.07-.05-.06-.01-.07-.05-.03-.053-.09-.05-.06-.01-.16-.02-.26-.02-.09-.02-.21-.05-.17-.05-.07-.01-.06-.025-.07-.04-.06-.05-.06-.08-.04-.1-.01-.08-.03-.07-.04-.18-.02-.17-.02-.1-.02-.14-.02-.1-.02-.13-.03-.08-.03-.105-.09-.11-.08-.06-.19-.1-.16-.056-.08-.02-.1-.01-.18-.05-.11-.05-.14-.12-.14-.08-.08-.09-.06-.11-.04-.14-.02-.2-.07-.29-.06-.17-.09-.14-.06-.04-.08-.09-.09-.06-.13-.08-.12-.05-.08-.02-.09-.01-.15-.07-.05-.02-.07-.01-.15-.045-.11-.03-.12-.06-.23-.11h-.12l-.1.02-.07.04-.06-.02.06-.06-.09-.04-.16-.13-.12-.1-.18-.1-.07-.03-.13-.01-.11-.03h-.1l-.15-.01-.04.01-.09-.02h-.04l-.08.03-.08.02-.09.05-.2.07-.29.05-.09.03-.17.08-.35.1-.27.065-.04-.01-.13-.03-.09.01-.22-.01h-.09l-.09.02-.08-.02-.18-.04-.14-.05-.09-.01-.08-.03-.05-.03-.31-.12-.04-.03-.03-.04-.13-.06-.22-.11-.22-.1-.13-.05-.14-.06-.27-.09-.27-.06-.23-.057-.23-.048-.14-.02-.05-.02-.09-.01-.22-.06-.26-.2-.12-.13-.09-.13-.12-.28-.03-.09-.02-.09-.04-.36-.02-.135-.03-.27-.05-.13-.08-.37v-.14l.13-.09.11-.18-.01-.13-.03-.13-.03-.08-.05-.09-.03-.05-.05-.09-.05-.04-.17-.31-.07-.12-.09-.18-.09-.08-.02-.04-.09-.14-.1-.18-.23-.27-.17-.27-.04-.09-.08-.22-.03-.23.05-.13v-.09l-.1-.32-.05-.09-.01-.04-.05-.18-.04-.13-.08-.18-.04-.1-.09-.15-.1-.13-.12-.14-.07-.09-.13-.136-.13-.1-.04-.03-.18-.12-.05-.02-.04-.03-.09-.04-.14-.05-.09-.05-.23-.06-.13-.02-.41-.04-.09-.04-.13-.03-.09.02h-.09l-.13-.04-.09-.07-.08-.04-.05-.03-.09-.04-.05-.04.01-.05-.09-.11-.03-.18-.02-.14-.01-.18.01-.09-.01-.14.01-.09-.04-.09.02-.184.03-.04-.01-.14-.02-.09-.04-.09-.09-.18-.09-.14-.07-.09-.13-.11-.14-.06-.13-.02h-.23l-.09.04-.14.08-.05.04-.16.17-.06.09-.08.13-.03.04-.09.09-.12.09-.04.03-.16.06-.17.03-.08.008-.12-.02-.18-.13-.13-.08-.13-.03h-.13l-.09.04-.13.13-.03.04-.1.13-.13.13-.09.05-.09.03-.22.05-.22.05-.05.02-.09.06-.14.04h-.1l-.13-.01-.09.01-.09-.02-.21-.09h-.06l-.07-.09-.09-.08-.08-.09-.07-.1-.15-.2-.04-.07-.13-.16-.17-.24-.18.13-.134.1-.08-.08-.07-.14-.06-.09-.05-.09-.04-.09-.14-.22-.06-.09-.07-.133-.08-.13-.1-.13-.08-.08-.08-.07-.09-.06-.22-.1-.09-.02-.17-.01-.09.02-.13.08-.18.16-.08.09-.07.09-.14.22-.12.18-.05.09-.09.08-.13.06-.27.07-.13.03-.05.02-.02.05-.09.04-.11.01.02-.62.04-1.06.07-1.9.04-1.04.04-.78.05-.91.11-2.2.03-.53.04-.46.08-1.14.05-.52.08-.62v-.03l-.02-.69-.02-.63.02-.35.02-.53.04-.76.03-.76.03-.6.05-1.17.01-.24.01-.28.01-.35.05-1.08.03-.89.01-.38.02-1.01-.02-.36-.09-.01 2.4-54.51.01-.45.02-.96.02-.8.04-1.05.02-.68.03-.67.9-.03 1.35-.06.44-.08h.9l.9.055.45.04.9-.09h.45l.89-.01.45.01h.44l.43.04.03.052.61-.1h.32l.38.09.46.1h.74l.91-.02.45-.02.47-.02.65-.04.25-.09h.4l.45.07.89.07.34-.01.56-.01.56-.01.34-.01.89-.02.95-.01.9-.01.44-.015h.23l.22-.01h.45l.48-.02h.45l.45-.01.42-.01.48-.01.74-.02 1.09-.02.38-.01.39.01.3.04h.12l.25-.03.35-.02.26.04h.19l.89-.07.45-.07.89-.03.39-.01.85-.01v.1l-.02.08h-.12l-.02.02-.06.03-.07.07-.04.06-.03.05-.03.06-.09.04v.18l.02.06.02.01.02.06-.01.04-.08.02-.02.07.02.09.03.02h.04V50l-.04.15v.06l.14.05.15-.09h.03l.03-.17h.02l-.02.114.02.01.03-.15.07-.043.1.03.03-.02.03-.09.01.13.03-.1.04.01.07.11.05.03-.1-.14V50l.03-.113.37-.23.17.28-.31.195-.02.01-.05.06.12.122.01-.025h.04l.04.02v.02l.17.02h.03l.02-.02-.05-.01-.03.01-.11-.02-.04-.02v-.01l.27-.01.25.01.07-.02h.05l.02.01h.04l.01-.02.05.01.02-.02.05.02h.04l.01.03.08.06.12.06.04-.01.1.02.12-.01.01-.02.06.01.05.02.12-.01.03-.03h.15l.01-.03.05-.06.09-.05.05-.02.08-.11.03-.07.02-.09-.01-.08.06-.08.13.08.02.01.13.16.05.01.04.04.09.03.09.06.11.02.25.1-.06.14-.25.03.02.05.06.05-.02.02.02-.02.01-.01.15-.09.01-.02.03-.01.21-.06v-.07l-.18-.02.04-.09h.14l.01.12.12.01v.02l-.11.03.01.08.04.31.06-.07.08.06.04.04.17.13.15.09.14.1.22.18h.02l.09.07.12.09.02-.01.02.06.03.03.41.28.22.14.07.03.08.01.09.04.05.04.11.06.07.03.06.01.08.03.18.09.1.05.36.13.13.05.13.03.16.04.11-.01.06-.03.15.03.15-.01.08-.07.13-.09.04.15.16.19.11.05.19.11.1.07.14.12.09.08.07.06.09.11.09.08.1.05.24.01v.04l-.12.09-.13.12.1.19.05.09.06.09.02.05v.02l.07.05.22.16.02.03.15.13.11.08.05.01.02.05.18.12.04.03.08.04.03.06.16.11.06.05.13.08.22.12.07.02.03.04.05.01.06.03.14.04.04.03.32.09.04-.01.03.03.09.01.03-.07h.02l-.03.07.05.04.06.02h.16l.03-.01.11-.01.04-.03.16-.01.025-.03.08.01.036-.02.12-.04.02-.04.05.03.08-.02.08-.04.26-.18.13-.11.087-.09.01-.05.04-.05.08-.07.03-.05-.01-.03.03-.05-.01-.04.09-.08.02-.08.008-.06.02-.04-.01-.07.01-.05.04-.06.1-.03-.03-.03-.02-.05.02-.05.03-.03-.01-.06-.03.01-.02.08h-.05l-.03-.02-.03-.11.03-.05.02-.06-.03-.07-.07-.03-.02-.02.01-.05.04-.06.06-.05.06-.1h.04l.08-.06.12-.03.06-.02.12.01.09.07.14.11.18.1.31.09v.1l-.2.06-.2.04.04.03.04.09.06.04.03-.02.05.09.08.09.04.06.03.06.08.14.09.13.06.06.05.04.08.05.05.01.07-.01.07.03.16.01.16-.01.27-.02-.04-.06-.04-.05.1-.05.06-.01.15.03.09.03.05.03.05.02.09.01.07-.02v.03h.14l.1.02.09.08V55l.07.04-.05.08v.09l.03.07.02.01-.06.13-.06.05-.08.09-.04.08.03.08-.01.02.01.03-.13.03-.11-.01-.03.01.07.22.01.02.06.05-.05.09-.02.14-.02.08-.02-.004-.06.06-.06.03-.07.01-.02-.08-.02-.05.01-.04.01-.07.06-.07.08-.05.06-.07.06-.05-.07-.22h.01l-.02-.06h-.13l-.05-.01-.1.01h-.11l.01.08-.042.03-.05.01-.04.03-.14.14-.06.04-.15.028-.06-.02-.04-.07-.08-.04h-.05l-.07.03h-.08l-.03-.03-.05-.01-.07.01-.06.05-.05-.01-.09-.04h-.08l-.04.02-.11.04-.08.06-.08.12-.05.22-.05.02-.05-.03-.05-.09-.06-.07-.04-.03-.015.04.08.32h-.01l-.07-.33-.03-.05-.05-.05v.11l.04.51h-.01l-.05-.52-.02-.13-.03-.02-.13-.04-.15.06-.08.01-.1.09-.01.03-.03.03-.05-.01-.08.07-.09.02-.04.03h-.04l-.06.03h-.09l-.02.02-.067.02h-.06l-.06-.02-.07.03-.09-.02-.07.02-.1-.01-.04.03-.07-.04-.07.02-.05-.01-.02.02-.04-.01-.19-.01-.12.02-.11.04-.12.02-.155-.03-.04-.02-.11-.01-.02-.02v.02h.02l.11.11v.05l-.144.06-.11.03.255.04v.1l-.31.09-.3.02-.01.07-.05.076.01.07-.2-.05-.04.03h-.06l-.09.08-.07.15h-.07l-.104-.07h-.08l-.12-.1-.04.04-.06.01-.06.04-.13.02-.11-.07-.06.01-.06-.01-.07.02h-.11l-.02.02v.1l.03.1.05.01.02.07.13.02.15.03.08.01.04.02v.08l.11.06.07.07.02.04-.02.03.01.03.07-.01.01.05-.07.03-.01.09-.01.06.03.05.07.06.1.02.03.04.07-.01.07-.06.05-.05v-.11l-.23-.14h.03l.09-.02.03-.012.05-.07.12-.06.04-.05.01-.07.23-.07h.02l.03.07.09.06.01.03.05.16-.01.01.06.11h.02l.03.07.08.09.04.1.08.16.08.05.08.07.025.01.064.06.09.02.04-.037h.07l.03-.02.09.03.04.02.08.03.07-.01.01-.04.04-.04h.03l.08-.06.08-.03.14-.1v-.02l.1-.07.02-.05.09-.01.03-.06.06.01.09-.02.03-.04-.01-.04.08-.08.04-.01.06-.09.23.08.07-.03.09.01.05-.01.04.01.02-.03.04.01.04-.02.07-.07.08-.02.05-.04.03-.06.06-.02.04.01.07-.04.03.02.06-.05.02-.04.06-.03.07-.13.02-.16-.02-.06-.01-.17-.02-.04.01-.03.05-.02.04.01.05.07.074.05h.07l.07-.02.08-.07V57l.16.25.03.03.05-.03.04.01.075-.01.04.04.04.06.07.03.04.005.06.1.04.1.1.1.16.12.08.05.12.06.06.02.15.02.05-.02.02-.05.08-.05.06-.06.04-.03.06-.01.07.09.04-.01-.01-.06.08-.3.06-.02-.07.28.04.07.04-.01.06-.04-.02-.07.03.01.01.07.02.06.05.04.06.175h.04l.03-.28.08-.26.03.01.05-.04.06.02.04-.02-.01-.04.06-.02.04.02.04-.02h.05l.05.05-.05.05.15.14.03-.05.04.03.03.04.05.01.04-.01.01.04h.06l.025-.05.06.01-.01.07.05.004.01-.04h.03l.03-.2.01-.09-.02-.02.03-.04.02-.145h.07l-.11-.14-.07-.1-.05-.08-.2-.02-.046.02-.02-.03-.06-.02-.04-.03-.014-.11v-.07l.05-.02.06-.09.06-.04.03.09.05.09.14.21.11.01.35.1-.18.19h-.05l.05.07.168.2.23.26.2.2.17.16.18.15.15.12.06.08.13.12.09.1.1.1.03.04.08.13.17.25h.03l.16-.02.26-.05.04.03.05.05.11.08.04.05.04.03.15.08.04-.01.02.02.05-.01.09.04.12.08.26.15.07.04.17.07.17.06.24.05h.05l.2.03.09-.01.16-.03.18-.06.21-.07.08-.04.05-.04.064-.04.04-.05.06-.01.13-.07.09-.02.08-.03.06-.03.06-.02.09-.06.04-.03.15-.09.05-.05.1-.05.12-.09.26-.18.05-.05.1-.05.08-.02.02-.02.09-.03.05-.025.09-.03.08-.05.05-.063.09-.03.02-.02.01-.05.09.03.23-.02.06-.045.05-.01.02-.05.09-.05.1-.07.09-.18h.07l.12.17.03.15.11.01.04-.01.17.02h.13l.22.03h.09l.32-.04.13-.01.14-.04.133-.04.13-.05.06-.04.01-.05.09-.02.12-.06.113-.07.03-.03.17-.11.1-.08.03-.01.09-.09.05-.02.02-.05.06-.01.09-.04.07-.06.09-.04.09-.07.18-.11.04-.05.04-.03.01-.03-.02-.04.03-.02.01-.05.02-.05.08.023.01-.05.08-.02h.04l.07.025.05.05.13-.05.07-.04.05-.01.15-.06.05-.01.1-.05.21-.09.02-.02.17-.07.1-.04.1-.04.12-.07.07-.01.05-.03.07-.02.24-.11.22-.11.18-.15.03-.21h.04l.21.11.05.17.05-.02.04-.01.07-.05.05-.01.05-.03.06-.01.09-.04.09-.01.11-.05.025-.02.13-.032.21-.1.12-.02.07-.03.03-.02.07-.02.1.02.09.01.05.016.06.01.06-.02.06.02.03.04.08-.01.03.02.02.04.08.02.09.05h.04l.04.03.12.06.05.03.01.03.06.05.03.01.02.04.05.012.05.05.01.03.11.07.12.04.05.03.186.06.03-.01.17.03.13.01.065-.01.1.01.05.01.2.036.05.02.09.02.06-.01.08.03h.1l.06.02.08.01.06.02.13.02h.2l.13-.01.12-.04.16-.06.04-.03.12-.06.03-.02.07-.04.07.02.11-.04.08-.02.34-.11.06.01.24-.03.04-.04h.07l.03.04.06.02.048-.01.14-.01.03.02.04-.01.06.04.07.01.01.01.14.04.05-.02.06.02.02.03.07.02.07.01.23.06.09-.01.08-.05-.01-.07.12-.06.03.06.12-.06.04-.07.11-.09.05.02.05-.03-.02-.03.12-.05.01-.02.04-.01.03-.03.26-.21.08-.1.525-.34.27-.12.06-.06.17-.13-.04-.024.02-.02.05.06.07-.06.06-.03.02-.05.06-.04.04-.07.06-.03.05.05.03-.02h.04l.05-.05.11-.08.19-.18.08-.06.06-.07.13-.12h.04l.01-.03.07-.05.03-.04.06-.05.04-.06.02-.05-.04-.04.08-.08.05.03.02-.05.04.04.06-.03.11-.1.06-.04.05-.04.07.03.05.12h.04l.02-.22.05-.22.037-.05.07-.07.03-.05.04-.03.16-.2.04-.03.06-.06.18-.14.1-.03h.27l.09-.13.18-.22.04-.01.12-.09.1-.07.19-.16.03-.04.12-.11.12-.16.13-.16.03-.02.1-.12.09-.13.21-.28.13-.21.08-.09.09-.06.04-.05.05-.05.14-.09.07-.07.08-.05.08-.09.08-.07.06-.07.08-.05.08-.074.19-.18.06-.05.03-.04.12-.08.16-.12.03-.02.07-.03.14-.09.17-.06.12-.02.05.13h.04l.12-.24.08-.26.09-.08h.03l.07-.04.09-.08.06-.07.19-.11.09-.04.06-.04.11-.06.14-.09.15-.13.08-.08.08-.1.1-.14-.01.066.05.04.06.01.03.05.14.006.097.01h.1l.09-.04.08-.01.04-.02h.04l.1-.03.08-.04.044-.01.11-.05.08-.07.08-.04h.07l.06-.03.06-.02.1-.06.12-.1.07-.05.14-.09.03-.04h.04l.04-.02.17-.13.14-.084.07-.01.07-.05.09-.07.03-.02.115-.08.1-.08.07-.03.09-.07.08-.04.1-.09.22-.11.17-.13.14-.08.11-.03.19-.12.08.01.11-.06.07-.05.07-.04.14-.035.11-.05.02-.02.19-.1.15-.1h.04l.16-.04.08-.03.19-.16.07-.04.08-.01.19-.1.14-.02.11-.04.07-.04.05-.01.12-.07.13-.09.08-.07.03.01.11.01h.06l.08-.06.04-.06.07-.01.11-.034h.06l.08-.05h.11l.03.01.07-.03.12-.01.11-.05.063-.04.08-.01.047.01.13-.01h.13l.15-.05.03-.03.12-.03.04-.02h.05l.18-.03.04-.02.14-.03.23-.12.12-.08.154-.06.04-.04.15-.09.07-.04h.03l.14-.06.09-.05.04-.02h.07l.12-.11.09-.07.06-.02.07-.01.08-.03.07-.05.08-.03.06.01.07-.05.12-.067.05-.04.1-.085.03-.05.13-.21.04-.03.03.03.02.136v-.2l.03-.03.05-.01v.03l.01-.085.01-.14h.01v.02l.06.24.02-.05.11-.01.06.01v.12l.02.01.05-.02.16-.03.08-.04.05-.05h.04l.12-.06h.033l.1-.08.1-.03.23-.05.13-.01.12-.02.2-.06.13-.07h.02l.06-.03.12-.07.07-.05.05.02.06-.01.2-.07.1-.04.02.08.13.09.05.24h.03l.19-.36.1-.33.14-.1.13-.02.05-.04.14-.02.04.01.21-.05.11-.05h.02l.1-.05h.02l.09-.05.19-.08.13-.06.07-.04.04.03.07.03.11.08h.13l.05-.09.06-.03.08.13h.02zm-86.432 66.69c1.854-2.96 1.854-9.08 1.854-9.08s0 6.12 1.852 9.08c2.483-1.085 5.12-3.723 5.12-3.723s-2.636 2.637-3.723 5.12c2.965 1.856 9.08 1.856 9.08 1.856s-6.115 0-9.08 1.85c1.087 2.48 3.724 5.12 3.724 5.12s-2.65-2.66-5.13-3.74c-1.73 2.59-1.85 7.15-1.84 8.62.01.29.01.46.01.46s-.01-.17-.01-.47c-.04-1.5-.3-6.2-1.87-8.66-2.1.86-4.14 2.8-4.84 3.5l-.25.26s.09-.1.26-.27c.69-.73 2.59-2.85 3.47-4.86-2.96-1.85-9.08-1.85-9.08-1.85s6.12 0 9.08-1.86c-1.09-2.49-3.72-5.12-3.72-5.12s2.64 2.63 5.12 3.72zM98.85 55.86l.084-.022.273-.015v.044l-.178.087-.07.04-.03.063-.01.01.07.144-.01.03v.07l.03.12-.01.08.03.07-.05.09-.03.01-.01-.04.02-.15-.03-.12-.09-.08-.02-.05.03-.04.03-.1-.03-.05-.03-.07-.03-.08zm-17.126-5.586h-.002l-.02.043.022-.043z"/>
</svg>
