<svg xmlns="http://www.w3.org/2000/svg" viewBox="0 0 488.89 136.23">
    <path d="M0 0h35.37A41.75 41.75 0 0 1 53 3.78a48.17 48.17 0 0 1 14.38 10.06 46.85 46.85 0 0 1 9.69 14.64 45.06 45.06 0 0 1 .06 34.87 46.55 46.55 0 0 1-9.63 14.7 47.46 47.46 0 0 1-14.39 10.12A42 42 0 0 1 35.37 92H0zm23.9 71.71h5.49a29.53 29.53 0 0 0 11.1-2 23.53 23.53 0 0 0 8.23-5.36 23 23 0 0 0 5.12-8.11A29 29 0 0 0 55.61 46a28.29 28.29 0 0 0-1.83-10.24 23 23 0 0 0-13.41-13.57 29.62 29.62 0 0 0-11-2H23.9zm113.29-42.32h22.2V92h-22.2v-7q-7.06 8.91-19.14 8.9a31 31 0 0 1-12.56-2.5 30 30 0 0 1-10-7 32.19 32.19 0 0 1-6.65-10.61 36.17 36.17 0 0 1-2.38-13.29 35.21 35.21 0 0 1 2.32-12.75 32.82 32.82 0 0 1 6.46-10.55 30.7 30.7 0 0 1 9.88-7.13 30.09 30.09 0 0 1 12.68-2.62 25.46 25.46 0 0 1 19.39 8.17zm-27.8 31.1a14.63 14.63 0 0 0 4.08 10.24 13.41 13.41 0 0 0 4.52 3 14.51 14.51 0 0 0 5.67 1.1 14.28 14.28 0 0 0 5.55-1.1 13.47 13.47 0 0 0 4.51-3 15.87 15.87 0 0 0 3.05-4.51 13.22 13.22 0 0 0 1.16-5.49 13.63 13.63 0 0 0-1.16-5.55 15.75 15.75 0 0 0-3.05-4.57 13.47 13.47 0 0 0-4.51-3 14.28 14.28 0 0 0-5.55-1.1 14.51 14.51 0 0 0-5.67 1.1 13.41 13.41 0 0 0-4.52 3 14.92 14.92 0 0 0-3 4.45 13.25 13.25 0 0 0-1.08 5.43zm86.46 22.92l-30.24-54h25.61l16.71 32.07 16.22-32.07h25.36l-57.28 106.82h-24.76zm88.3-35.61V92h-22.08V47.8h-17l9.67-18.41h7.32V10.61h22.08v18.78h12.56V47.8zm17.06 12.32a30.49 30.49 0 0 1 2.81-13 31.76 31.76 0 0 1 7.81-10.48 37 37 0 0 1 11.89-7 43 43 0 0 1 15.06-2.56 43.7 43.7 0 0 1 14.94 2.5 37.27 37.27 0 0 1 11.95 7 31.3 31.3 0 0 1 7.86 10.61 32.45 32.45 0 0 1 2.81 13.6 31.87 31.87 0 0 1-2.87 13.6A32.28 32.28 0 0 1 365.61 85a35.3 35.3 0 0 1-12 6.89 46 46 0 0 1-15.18 2.44 44.15 44.15 0 0 1-14.88-2.44 34.33 34.33 0 0 1-11.76-7A32.19 32.19 0 0 1 304 74.08a33.83 33.83 0 0 1-2.79-13.96zm23.3.24a14.07 14.07 0 0 0 1.16 5.8 15.43 15.43 0 0 0 3.05 4.57 13.37 13.37 0 0 0 4.51 3 14.55 14.55 0 0 0 11.1 0 13.47 13.47 0 0 0 4.51-3 15.62 15.62 0 0 0 3.05-4.57 13.92 13.92 0 0 0 1.16-5.67 13.63 13.63 0 0 0-1.16-5.55 15.62 15.62 0 0 0-3.05-4.57 13.47 13.47 0 0 0-4.51-3 14.55 14.55 0 0 0-11.1 0 13.37 13.37 0 0 0-4.51 3 15.66 15.66 0 0 0-3.05 4.51 13 13 0 0 0-1.16 5.48zm57.19-30.97h22.08v7.93q4.5-5.49 9.14-7.38a28.62 28.62 0 0 1 10.85-1.89 27.1 27.1 0 0 1 11.28 2.13 22.48 22.48 0 0 1 8 6 17.36 17.36 0 0 1 3.66 7.07 36.89 36.89 0 0 1 1 8.9V92H425.6V60.36a34.5 34.5 0 0 0-.66-7.49 9.37 9.37 0 0 0-2.38-4.58 8.51 8.51 0 0 0-3.3-2.07 12.16 12.16 0 0 0-3.9-.61c-3.74 0-6.6 1.12-8.6 3.35s-3 5.43-3 9.58V92H381.7zm-153.4 90.23H241v1a21.25 21.25 0 0 1-.82 6.15 13.15 13.15 0 0 1-2.69 4.62 14 14 0 0 1-10.91 4.83 15 15 0 0 1-11.07-4.67 16.07 16.07 0 0 1 18.23-25.82 19.53 19.53 0 0 1 5.88 4.78l-3.31 3.17q-3.78-5-9.23-5a11 11 0 0 0-8.2 3.37 11.26 11.26 0 0 0-3.31 8.29 11.57 11.57 0 0 0 11.17 11.57 9.28 9.28 0 0 0 6.16-2.31 8.24 8.24 0 0 0 3.1-5.6h-7.7zm35.39 7.38h-13.92a5.87 5.87 0 0 0 1.56 3.81 4.73 4.73 0 0 0 3.53 1.4 4.56 4.56 0 0 0 2.76-.8 11.05 11.05 0 0 0 2.46-3l3.79 2.11a15.2 15.2 0 0 1-1.86 2.57 10.28 10.28 0 0 1-2.09 1.75 8.55 8.55 0 0 1-2.41 1 12 12 0 0 1-2.82.32 9.13 9.13 0 0 1-7-2.79 10.48 10.48 0 0 1-2.64-7.46 10.71 10.71 0 0 1 2.56-7.46 9.73 9.73 0 0 1 13.6-.08 10.78 10.78 0 0 1 2.47 7.52zm-4.61-3.67a4.29 4.29 0 0 0-4.52-3.58 4.56 4.56 0 0 0-1.56.25 4.11 4.11 0 0 0-1.3.71 4.38 4.38 0 0 0-1 1.13 5.41 5.41 0 0 0-.64 1.49zm8.6 2.47a9.64 9.64 0 0 1 3-7.16 10.62 10.62 0 0 1 14.71 0 10.38 10.38 0 0 1 0 14.62 10.3 10.3 0 0 1-7.43 2.93 9.83 9.83 0 0 1-7.32-3 10 10 0 0 1-2.96-7.39zm4.58.08a6.52 6.52 0 0 0 1.56 4.6 6 6 0 0 0 8.41 0 7.27 7.27 0 0 0 0-9 6 6 0 0 0-8.37 0 6.27 6.27 0 0 0-1.6 4.4zm20.2-17.73a2.94 2.94 0 0 1 2.91-2.89 2.82 2.82 0 0 1 2.07.86 2.71 2.71 0 0 1 .86 2 2.79 2.79 0 0 1-.86 2.07 2.71 2.71 0 0 1-2.05.86 2.79 2.79 0 0 1-2.07-.86 2.85 2.85 0 0 1-.86-2.04zm5.17 8.08v19.42h-4.49v-19.42zm5.68 0h4.51V118a7.34 7.34 0 0 1 5.3-2.33 6.69 6.69 0 0 1 5.28 2.13q1.64 1.82 1.64 5.92v11.91h-4.51V124.8a7.13 7.13 0 0 0-.79-4 3.26 3.26 0 0 0-2.84-1.11 3.48 3.48 0 0 0-3.17 1.47c-.61 1-.91 2.67-.91 5.08v9.38h-4.51zm27.04 4.18v15.24h-4.51v-15.24h-1.6v-4.18h1.6v-7.5c0-2.45.42-4.17 1.28-5.19a6.26 6.26 0 0 1 5.1-2.11 8.66 8.66 0 0 1 3 .7v4.59l-.46-.24a5.53 5.53 0 0 0-2.39-.74 1.59 1.59 0 0 0-1.61.86 8.19 8.19 0 0 0-.42 3.23v6.4h4.88v4.18zm7.06 5.39a9.64 9.64 0 0 1 3-7.16 10.62 10.62 0 0 1 14.71 0 10.41 10.41 0 0 1 0 14.62 10.31 10.31 0 0 1-7.44 2.93 9.83 9.83 0 0 1-7.31-3 10 10 0 0 1-2.96-7.39zm4.58.08a6.57 6.57 0 0 0 1.55 4.6 6 6 0 0 0 8.42 0 7.27 7.27 0 0 0 0-9 5.49 5.49 0 0 0-4.21-1.71 5.42 5.42 0 0 0-4.16 1.71 6.23 6.23 0 0 0-1.59 4.4zm20.88-9.65h4.49V118a8.53 8.53 0 0 1 2.19-1.77 4.92 4.92 0 0 1 2.31-.5 7.23 7.23 0 0 1 3.71 1.15l-2.05 4.12a4.29 4.29 0 0 0-2.52-1q-3.67 0-3.67 5.55v10.07h-4.49zm15.89 0h4.49V118a9.4 9.4 0 0 1 2.21-1.83 5.27 5.27 0 0 1 2.45-.5 6 6 0 0 1 5.21 2.87 6.7 6.7 0 0 1 5.72-2.87q6.56 0 6.56 8v12h-4.51v-10.81a8.23 8.23 0 0 0-.68-4 2.44 2.44 0 0 0-2.29-1.17 2.92 2.92 0 0 0-2.7 1.39 8.94 8.94 0 0 0-.85 4.49v10h-4.5v-10.65c0-3.46-1-5.18-3-5.18a3 3 0 0 0-2.76 1.41 8.92 8.92 0 0 0-.86 4.47v10h-4.49zm46.62 0h4.5v19.42h-4.5v-2a8.6 8.6 0 0 1-12.62-.32 10.78 10.78 0 0 1-2.62-7.41 10.46 10.46 0 0 1 2.62-7.28 8.42 8.42 0 0 1 6.54-2.91 8.28 8.28 0 0 1 6.08 2.79zm-10.65 9.65a6.74 6.74 0 0 0 1.5 4.54 4.87 4.87 0 0 0 3.86 1.78 5.12 5.12 0 0 0 4-1.72 7.36 7.36 0 0 0 0-9 5.05 5.05 0 0 0-4-1.73 4.93 4.93 0 0 0-3.86 1.75 6.45 6.45 0 0 0-1.5 4.38zm25.44-5.47v15.24h-4.48v-15.24h-1.92v-4.18h1.92v-7.12h4.48v7.12h3.49v4.18zm5.83-12.26a2.75 2.75 0 0 1 .86-2 2.78 2.78 0 0 1 2.05-.86 2.82 2.82 0 0 1 2.07.86 2.75 2.75 0 0 1 .86 2 2.82 2.82 0 0 1-.86 2.07 2.73 2.73 0 0 1-2 .86 2.77 2.77 0 0 1-2.07-.86 2.81 2.81 0 0 1-.91-2.07zm5.16 8.08v19.42h-4.48v-19.42zm20.84.83v6a11.14 11.14 0 0 0-2.75-2.57 5.47 5.47 0 0 0-2.82-.71 5.54 5.54 0 0 0-4.2 1.77 6.22 6.22 0 0 0-1.68 4.45 6.34 6.34 0 0 0 1.62 4.48 5.45 5.45 0 0 0 4.17 1.76 5.79 5.79 0 0 0 2.85-.7 11.49 11.49 0 0 0 2.81-2.63v5.92a11.82 11.82 0 0 1-5.46 1.42 10.42 10.42 0 0 1-7.54-2.92 9.69 9.69 0 0 1-3-7.27 9.83 9.83 0 0 1 3.07-7.34 10.36 10.36 0 0 1 7.53-3 11.34 11.34 0 0 1 5.4 1.34zm15.63 2.48l-3.71 2c-.58-1.2-1.31-1.79-2.17-1.79a1.47 1.47 0 0 0-1.06.41 1.37 1.37 0 0 0-.44 1c0 .75.87 1.48 2.59 2.22a15.25 15.25 0 0 1 4.81 2.83 4.85 4.85 0 0 1 1.24 3.49 6.12 6.12 0 0 1-2.08 4.7 7 7 0 0 1-4.86 1.8q-4.89 0-6.92-4.77l3.82-1.78a9 9 0 0 0 1.22 1.78 2.82 2.82 0 0 0 2 .76c1.51 0 2.27-.69 2.27-2.08 0-.79-.58-1.54-1.76-2.23l-1.35-.66-1.38-.66a8.27 8.27 0 0 1-2.75-1.91 4.7 4.7 0 0 1-1-3.13 5.54 5.54 0 0 1 1.74-4.19 6.09 6.09 0 0 1 4.31-1.65q3.66.01 5.48 3.86z"/>
    <path d="M0 0h35.37A41.75 41.75 0 0 1 53 3.78a48.17 48.17 0 0 1 14.38 10.06 46.85 46.85 0 0 1 9.69 14.64 45.06 45.06 0 0 1 .06 34.87 46.55 46.55 0 0 1-9.63 14.7 47.46 47.46 0 0 1-14.39 10.12A42 42 0 0 1 35.37 92H0zm23.9 71.71h5.49a29.53 29.53 0 0 0 11.1-2 23.53 23.53 0 0 0 8.23-5.36 23 23 0 0 0 5.12-8.11A29 29 0 0 0 55.61 46a28.29 28.29 0 0 0-1.83-10.24 23 23 0 0 0-13.41-13.57 29.62 29.62 0 0 0-11-2H23.9zm113.29-42.32h22.2V92h-22.2v-7q-7.06 8.91-19.14 8.9a31 31 0 0 1-12.56-2.5 30 30 0 0 1-10-7 32.19 32.19 0 0 1-6.65-10.61 36.17 36.17 0 0 1-2.38-13.29 35.21 35.21 0 0 1 2.32-12.75 32.82 32.82 0 0 1 6.46-10.55 30.7 30.7 0 0 1 9.88-7.13 30.09 30.09 0 0 1 12.68-2.62 25.46 25.46 0 0 1 19.39 8.17zm-27.8 31.1a14.63 14.63 0 0 0 4.08 10.24 13.41 13.41 0 0 0 4.52 3 14.51 14.51 0 0 0 5.67 1.1 14.28 14.28 0 0 0 5.55-1.1 13.47 13.47 0 0 0 4.51-3 15.87 15.87 0 0 0 3.05-4.51 13.22 13.22 0 0 0 1.16-5.49 13.63 13.63 0 0 0-1.16-5.55 15.75 15.75 0 0 0-3.05-4.57 13.47 13.47 0 0 0-4.51-3 14.28 14.28 0 0 0-5.55-1.1 14.51 14.51 0 0 0-5.67 1.1 13.41 13.41 0 0 0-4.52 3 14.92 14.92 0 0 0-3 4.45 13.25 13.25 0 0 0-1.08 5.43zm86.46 22.92l-30.24-54h25.61l16.71 32.07 16.22-32.07h25.36l-57.28 106.82h-24.76zm88.3-35.61V92h-22.08V47.8h-17l9.67-18.41h7.32V10.61h22.08v18.78h12.56V47.8zm17.06 12.32a30.49 30.49 0 0 1 2.81-13 31.76 31.76 0 0 1 7.81-10.48 37 37 0 0 1 11.89-7 43 43 0 0 1 15.06-2.56 43.7 43.7 0 0 1 14.94 2.5 37.27 37.27 0 0 1 11.95 7 31.3 31.3 0 0 1 7.86 10.61 32.45 32.45 0 0 1 2.81 13.6 31.87 31.87 0 0 1-2.87 13.6A32.28 32.28 0 0 1 365.61 85a35.3 35.3 0 0 1-12 6.89 46 46 0 0 1-15.18 2.44 44.15 44.15 0 0 1-14.88-2.44 34.33 34.33 0 0 1-11.76-7A32.19 32.19 0 0 1 304 74.08a33.83 33.83 0 0 1-2.79-13.96zm23.3.24a14.07 14.07 0 0 0 1.16 5.8 15.43 15.43 0 0 0 3.05 4.57 13.37 13.37 0 0 0 4.51 3 14.55 14.55 0 0 0 11.1 0 13.47 13.47 0 0 0 4.51-3 15.62 15.62 0 0 0 3.05-4.57 13.92 13.92 0 0 0 1.16-5.67 13.63 13.63 0 0 0-1.16-5.55 15.62 15.62 0 0 0-3.05-4.57 13.47 13.47 0 0 0-4.51-3 14.55 14.55 0 0 0-11.1 0 13.37 13.37 0 0 0-4.51 3 15.66 15.66 0 0 0-3.05 4.51 13 13 0 0 0-1.16 5.48zm57.19-30.97h22.08v7.93q4.5-5.49 9.14-7.38a28.62 28.62 0 0 1 10.85-1.89 27.1 27.1 0 0 1 11.28 2.13 22.48 22.48 0 0 1 8 6 17.36 17.36 0 0 1 3.66 7.07 36.89 36.89 0 0 1 1 8.9V92H425.6V60.36a34.5 34.5 0 0 0-.66-7.49 9.37 9.37 0 0 0-2.38-4.58 8.51 8.51 0 0 0-3.3-2.07 12.16 12.16 0 0 0-3.9-.61c-3.74 0-6.6 1.12-8.6 3.35s-3 5.43-3 9.58V92H381.7zm-153.4 90.23H241v1a21.25 21.25 0 0 1-.82 6.15 13.15 13.15 0 0 1-2.69 4.62 14 14 0 0 1-10.91 4.83 15 15 0 0 1-11.07-4.67 16.07 16.07 0 0 1 18.23-25.82 19.53 19.53 0 0 1 5.88 4.78l-3.31 3.17q-3.78-5-9.23-5a11 11 0 0 0-8.2 3.37 11.26 11.26 0 0 0-3.31 8.29 11.57 11.57 0 0 0 11.17 11.57 9.28 9.28 0 0 0 6.16-2.31 8.24 8.24 0 0 0 3.1-5.6h-7.7zm35.39 7.38h-13.92a5.87 5.87 0 0 0 1.56 3.81 4.73 4.73 0 0 0 3.53 1.4 4.56 4.56 0 0 0 2.76-.8 11.05 11.05 0 0 0 2.46-3l3.79 2.11a15.2 15.2 0 0 1-1.86 2.57 10.28 10.28 0 0 1-2.09 1.75 8.55 8.55 0 0 1-2.41 1 12 12 0 0 1-2.82.32 9.13 9.13 0 0 1-7-2.79 10.48 10.48 0 0 1-2.64-7.46 10.71 10.71 0 0 1 2.56-7.46 9.73 9.73 0 0 1 13.6-.08 10.78 10.78 0 0 1 2.47 7.52zm-4.61-3.67a4.29 4.29 0 0 0-4.52-3.58 4.56 4.56 0 0 0-1.56.25 4.11 4.11 0 0 0-1.3.71 4.38 4.38 0 0 0-1 1.13 5.41 5.41 0 0 0-.64 1.49zm8.6 2.47a9.64 9.64 0 0 1 3-7.16 10.62 10.62 0 0 1 14.71 0 10.38 10.38 0 0 1 0 14.62 10.3 10.3 0 0 1-7.43 2.93 9.83 9.83 0 0 1-7.32-3 10 10 0 0 1-2.96-7.39zm4.58.08a6.52 6.52 0 0 0 1.56 4.6 6 6 0 0 0 8.41 0 7.27 7.27 0 0 0 0-9 6 6 0 0 0-8.37 0 6.27 6.27 0 0 0-1.6 4.4zm20.2-17.73a2.94 2.94 0 0 1 2.91-2.89 2.82 2.82 0 0 1 2.07.86 2.71 2.71 0 0 1 .86 2 2.79 2.79 0 0 1-.86 2.07 2.71 2.71 0 0 1-2.05.86 2.79 2.79 0 0 1-2.07-.86 2.85 2.85 0 0 1-.86-2.04zm5.17 8.08v19.42h-4.49v-19.42zm5.68 0h4.51V118a7.34 7.34 0 0 1 5.3-2.33 6.69 6.69 0 0 1 5.28 2.13q1.64 1.82 1.64 5.92v11.91h-4.51V124.8a7.13 7.13 0 0 0-.79-4 3.26 3.26 0 0 0-2.84-1.11 3.48 3.48 0 0 0-3.17 1.47c-.61 1-.91 2.67-.91 5.08v9.38h-4.51zm27.04 4.18v15.24h-4.51v-15.24h-1.6v-4.18h1.6v-7.5c0-2.45.42-4.17 1.28-5.19a6.26 6.26 0 0 1 5.1-2.11 8.66 8.66 0 0 1 3 .7v4.59l-.46-.24a5.53 5.53 0 0 0-2.39-.74 1.59 1.59 0 0 0-1.61.86 8.19 8.19 0 0 0-.42 3.23v6.4h4.88v4.18zm7.06 5.39a9.64 9.64 0 0 1 3-7.16 10.62 10.62 0 0 1 14.71 0 10.41 10.41 0 0 1 0 14.62 10.31 10.31 0 0 1-7.44 2.93 9.83 9.83 0 0 1-7.31-3 10 10 0 0 1-2.96-7.39zm4.58.08a6.57 6.57 0 0 0 1.55 4.6 6 6 0 0 0 8.42 0 7.27 7.27 0 0 0 0-9 5.49 5.49 0 0 0-4.21-1.71 5.42 5.42 0 0 0-4.16 1.71 6.23 6.23 0 0 0-1.59 4.4zm20.88-9.65h4.49V118a8.53 8.53 0 0 1 2.19-1.77 4.92 4.92 0 0 1 2.31-.5 7.23 7.23 0 0 1 3.71 1.15l-2.05 4.12a4.29 4.29 0 0 0-2.52-1q-3.67 0-3.67 5.55v10.07h-4.49zm15.89 0h4.49V118a9.4 9.4 0 0 1 2.21-1.83 5.27 5.27 0 0 1 2.45-.5 6 6 0 0 1 5.21 2.87 6.7 6.7 0 0 1 5.72-2.87q6.56 0 6.56 8v12h-4.51v-10.81a8.23 8.23 0 0 0-.68-4 2.44 2.44 0 0 0-2.29-1.17 2.92 2.92 0 0 0-2.7 1.39 8.94 8.94 0 0 0-.85 4.49v10h-4.5v-10.65c0-3.46-1-5.18-3-5.18a3 3 0 0 0-2.76 1.41 8.92 8.92 0 0 0-.86 4.47v10h-4.49zm46.62 0h4.5v19.42h-4.5v-2a8.6 8.6 0 0 1-12.62-.32 10.78 10.78 0 0 1-2.62-7.41 10.46 10.46 0 0 1 2.62-7.28 8.42 8.42 0 0 1 6.54-2.91 8.28 8.28 0 0 1 6.08 2.79zm-10.65 9.65a6.74 6.74 0 0 0 1.5 4.54 4.87 4.87 0 0 0 3.86 1.78 5.12 5.12 0 0 0 4-1.72 7.36 7.36 0 0 0 0-9 5.05 5.05 0 0 0-4-1.73 4.93 4.93 0 0 0-3.86 1.75 6.45 6.45 0 0 0-1.5 4.38zm25.44-5.47v15.24h-4.48v-15.24h-1.92v-4.18h1.92v-7.12h4.48v7.12h3.49v4.18zm5.83-12.26a2.75 2.75 0 0 1 .86-2 2.78 2.78 0 0 1 2.05-.86 2.82 2.82 0 0 1 2.07.86 2.75 2.75 0 0 1 .86 2 2.82 2.82 0 0 1-.86 2.07 2.73 2.73 0 0 1-2 .86 2.77 2.77 0 0 1-2.07-.86 2.81 2.81 0 0 1-.91-2.07zm5.16 8.08v19.42h-4.48v-19.42zm20.84.83v6a11.14 11.14 0 0 0-2.75-2.57 5.47 5.47 0 0 0-2.82-.71 5.54 5.54 0 0 0-4.2 1.77 6.22 6.22 0 0 0-1.68 4.45 6.34 6.34 0 0 0 1.62 4.48 5.45 5.45 0 0 0 4.17 1.76 5.79 5.79 0 0 0 2.85-.7 11.49 11.49 0 0 0 2.81-2.63v5.92a11.82 11.82 0 0 1-5.46 1.42 10.42 10.42 0 0 1-7.54-2.92 9.69 9.69 0 0 1-3-7.27 9.83 9.83 0 0 1 3.07-7.34 10.36 10.36 0 0 1 7.53-3 11.34 11.34 0 0 1 5.4 1.34zm15.63 2.48l-3.71 2c-.58-1.2-1.31-1.79-2.17-1.79a1.47 1.47 0 0 0-1.06.41 1.37 1.37 0 0 0-.44 1c0 .75.87 1.48 2.59 2.22a15.25 15.25 0 0 1 4.81 2.83 4.85 4.85 0 0 1 1.24 3.49 6.12 6.12 0 0 1-2.08 4.7 7 7 0 0 1-4.86 1.8q-4.89 0-6.92-4.77l3.82-1.78a9 9 0 0 0 1.22 1.78 2.82 2.82 0 0 0 2 .76c1.51 0 2.27-.69 2.27-2.08 0-.79-.58-1.54-1.76-2.23l-1.35-.66-1.38-.66a8.27 8.27 0 0 1-2.75-1.91 4.7 4.7 0 0 1-1-3.13 5.54 5.54 0 0 1 1.74-4.19 6.09 6.09 0 0 1 4.31-1.65q3.66.01 5.48 3.86z"/>
</svg>
