<?xml version="1.0" standalone="no"?>
<!DOCTYPE svg PUBLIC "-//W3C//DTD SVG 20010904//EN"
 "http://www.w3.org/TR/2001/REC-SVG-20010904/DTD/svg10.dtd">
<svg version="1.0" xmlns="http://www.w3.org/2000/svg"
 width="1024.000000pt" height="1024.000000pt" viewBox="0 0 1024.000000 1024.000000"
 preserveAspectRatio="xMidYMid meet">
<metadata>
Created by potrace 1.11, written by Peter Selinger 2001-2013
</metadata>
<g transform="translate(0.000000,1024.000000) scale(0.100000,-0.100000)"
fill="#000000" stroke="none">
<path d="M4858 10235 c-2 -1 -48 -6 -103 -9 -118 -8 -175 -14 -270 -27 -38 -5
-88 -12 -110 -14 -59 -7 -108 -15 -125 -20 -8 -2 -31 -6 -50 -9 -306 -46 -829
-207 -1165 -359 -116 -52 -404 -200 -500 -257 -466 -275 -927 -656 -1258
-1040 -50 -58 -93 -107 -96 -110 -16 -13 -187 -238 -258 -340 -310 -442 -540
-915 -707 -1455 -21 -70 -49 -172 -62 -227 -2 -10 -6 -26 -8 -35 -17 -69 -57
-254 -61 -283 -3 -19 -7 -47 -10 -62 -12 -64 -15 -85 -21 -128 -3 -25 -7 -56
-10 -70 -2 -14 -6 -52 -9 -85 -3 -33 -8 -69 -10 -80 -27 -129 -26 -774 0
-1010 3 -22 7 -58 9 -80 12 -112 48 -337 66 -420 5 -22 12 -56 15 -75 7 -38
60 -256 75 -305 59 -193 80 -259 120 -370 114 -311 280 -655 442 -913 32 -51
58 -95 58 -98 0 -3 5 -10 10 -17 6 -7 38 -52 72 -102 436 -638 1025 -1182
1695 -1564 140 -80 347 -184 453 -229 30 -13 62 -27 71 -32 8 -4 47 -20 85
-35 38 -15 103 -40 144 -56 59 -22 149 -53 220 -74 3 -1 12 -5 20 -8 14 -6
122 -38 145 -43 6 -1 53 -14 105 -28 81 -22 135 -34 263 -61 10 -2 26 -6 35
-9 9 -3 35 -7 57 -11 22 -3 78 -12 125 -20 47 -8 110 -17 140 -20 30 -3 66 -7
80 -10 25 -5 52 -7 225 -21 187 -16 722 -9 870 11 17 2 74 9 129 15 54 7 108
13 119 16 12 2 39 6 62 9 22 3 47 8 55 10 8 2 33 7 55 10 23 3 50 7 60 10 347
75 580 143 865 252 158 60 186 72 397 174 1007 486 1856 1333 2347 2344 96
196 107 220 136 295 11 30 27 69 34 85 46 102 171 484 191 583 2 9 15 64 29
122 31 129 57 258 70 353 4 27 9 58 12 70 2 11 6 43 9 71 3 28 8 69 11 91 35
264 40 831 9 1095 -3 19 -7 56 -10 83 -6 58 -12 95 -30 217 -15 98 -18 110
-35 196 -6 28 -13 64 -16 80 -3 16 -19 83 -35 149 -225 899 -685 1715 -1336
2370 -127 128 -263 253 -363 334 -25 20 -47 39 -50 42 -13 15 -227 173 -325
240 -650 446 -1413 745 -2155 844 -25 3 -72 10 -105 15 -33 5 -100 12 -150 16
-49 3 -99 8 -110 11 -21 5 -632 12 -637 8z m602 -689 c41 -5 125 -13 205 -20
17 -2 44 -6 60 -9 17 -4 52 -9 79 -12 87 -10 346 -65 491 -105 206 -57 427
-135 572 -201 23 -10 46 -19 50 -19 12 0 330 -161 415 -211 102 -59 262 -162
266 -171 2 -5 8 -8 14 -8 9 0 295 -210 330 -242 7 -7 47 -42 88 -78 90 -77
178 -161 268 -254 98 -101 121 -126 182 -197 30 -35 59 -69 65 -75 81 -91 291
-389 388 -550 101 -168 221 -410 303 -609 89 -218 175 -499 224 -735 31 -148
52 -275 75 -460 25 -208 26 -768 0 -931 -2 -13 -6 -51 -10 -84 -5 -52 -36
-242 -50 -315 -97 -498 -283 -979 -558 -1440 -46 -77 -185 -281 -256 -375
-257 -342 -655 -726 -991 -958 -324 -223 -612 -376 -962 -513 -279 -108 -694
-215 -963 -249 -16 -2 -55 -7 -85 -11 -176 -22 -300 -28 -540 -28 -294 0 -386
6 -650 45 -160 23 -177 26 -256 44 -34 8 -73 16 -87 19 -113 20 -491 136 -596
182 -29 13 -58 24 -63 24 -5 0 -29 9 -54 20 -24 11 -65 29 -91 41 -159 69
-436 217 -530 280 -23 16 -44 29 -48 29 -9 0 -180 119 -300 209 -89 67 -125
95 -255 206 -100 85 -418 417 -511 532 -111 139 -246 324 -297 408 -164 268
-272 475 -357 680 -7 17 -22 53 -33 80 -12 28 -40 104 -62 170 -23 66 -45 131
-50 145 -5 14 -19 61 -30 105 -80 304 -112 471 -145 755 -26 228 -26 726 -1
915 3 17 7 55 11 85 4 30 9 73 11 95 15 122 76 416 115 550 175 600 420 1083
786 1553 235 300 545 601 862 836 665 493 1493 798 2311 852 58 3 106 8 108 9
6 5 508 -3 552 -9z"/>
<path d="M7778 8144 c-16 -8 -28 -19 -28 -24 0 -6 -10 -10 -22 -10 -37 0 -88
-23 -94 -43 -4 -12 -9 -15 -17 -9 -8 6 -32 3 -67 -9 -30 -9 -58 -15 -64 -12
-5 3 -14 -1 -20 -9 -15 -20 -133 -75 -180 -83 -51 -8 -192 -74 -284 -132 -41
-25 -87 -46 -105 -47 -17 -1 -32 -7 -35 -14 -2 -6 -10 -12 -17 -12 -8 0 -23
-12 -34 -26 -12 -15 -21 -24 -21 -20 0 12 -57 -32 -92 -71 -60 -67 -103 -108
-123 -119 -11 -6 -24 -20 -30 -32 -5 -12 -14 -22 -19 -22 -5 0 -16 -8 -25 -18
-9 -10 -52 -43 -95 -73 -75 -50 -84 -54 -145 -56 -164 -7 -175 -6 -219 17 -38
20 -48 21 -82 11 -21 -6 -42 -10 -47 -9 -4 1 -31 -10 -60 -25 -29 -15 -57 -27
-63 -27 -5 0 -33 -16 -61 -36 -51 -38 -99 -51 -127 -35 -10 6 -34 -2 -76 -26
-105 -59 -127 -66 -161 -55 -82 28 -104 41 -148 86 -34 34 -51 46 -56 38 -4
-7 -15 -10 -24 -6 -10 3 -23 2 -30 -3 -21 -16 -77 -16 -83 0 -10 27 -45 28
-66 1 -11 -13 -29 -24 -40 -24 -12 0 -29 -7 -38 -15 -31 -28 -58 -26 -77 6
-10 16 -20 29 -24 29 -8 0 -30 -25 -26 -31 1 -2 -3 2 -10 9 -6 8 -20 20 -30
28 -17 14 -16 14 12 12 31 -2 95 19 95 31 0 4 24 8 52 10 29 1 56 8 60 14 6 9
12 9 27 0 16 -10 20 -9 25 4 5 11 14 14 36 10 16 -4 32 -2 36 4 3 6 16 9 28 7
18 -4 22 1 24 25 2 29 2 30 -38 24 -35 -4 -44 -1 -65 21 -13 14 -22 29 -19 33
6 10 -33 22 -45 15 -5 -4 -8 -14 -6 -24 4 -28 -22 -68 -55 -82 -26 -11 -37
-10 -73 4 -49 19 -107 67 -111 89 -1 9 -15 26 -32 39 -16 12 -31 25 -34 28 -3
3 -23 6 -44 7 -62 4 -205 91 -189 116 3 6 2 7 -4 4 -6 -4 -19 0 -29 8 -16 12
-21 11 -36 -2 -22 -19 -109 -9 -101 13 7 19 -6 18 -28 -2 -33 -29 -49 5 -19
41 12 15 5 16 -96 9 -60 -3 -424 -8 -809 -9 -385 -1 -714 -3 -730 -4 l-31 -1
-3 -132 c-2 -73 -4 -160 -6 -193 -2 -33 -6 -132 -10 -220 -4 -88 -8 -196 -11
-240 -2 -44 -6 -138 -9 -210 -3 -71 -7 -170 -10 -220 -2 -49 -7 -157 -10 -240
-3 -82 -7 -188 -10 -235 -3 -47 -7 -146 -10 -220 -3 -74 -7 -180 -10 -235 -9
-181 -15 -318 -21 -450 -3 -71 -7 -170 -10 -220 -3 -49 -6 -189 -9 -310 -6
-347 -15 -582 -30 -790 -2 -22 -6 -129 -10 -237 l-7 -197 21 6 c12 3 32 19 45
35 29 38 56 32 85 -18 12 -19 27 -34 35 -32 7 2 27 -12 43 -29 29 -31 33 -32
64 -21 19 6 42 17 51 25 13 11 21 12 37 3 18 -9 25 -7 47 15 46 47 74 28 80
-54 2 -35 16 -50 47 -52 74 -6 116 -44 132 -119 4 -19 21 -57 38 -83 24 -40
31 -61 32 -114 3 -80 14 -92 115 -128 101 -36 126 -39 189 -22 52 13 56 13
125 -15 82 -34 84 -35 89 -68 2 -17 15 -31 40 -43 25 -13 39 -28 43 -45 10
-48 13 -51 41 -58 15 -3 48 -15 71 -25 51 -23 67 -16 76 36 6 32 11 36 75 55
86 25 93 25 129 -5 18 -15 55 -30 94 -38 79 -17 116 -40 126 -81 11 -40 37
-45 68 -11 19 20 30 25 47 20 86 -27 119 -18 147 39 16 34 30 48 60 60 22 9
40 20 40 25 0 4 13 24 29 44 28 35 29 36 46 18 16 -19 18 -19 48 -1 18 10 49
21 69 24 34 6 38 4 44 -18 3 -15 -1 -34 -12 -50 -16 -26 -16 -28 6 -51 15 -16
24 -39 26 -63 1 -20 2 -45 3 -56 1 -10 17 -34 37 -52 30 -29 43 -34 82 -34 56
0 81 -15 122 -75 17 -25 44 -52 60 -60 23 -12 31 -25 36 -53 7 -42 19 -61 51
-79 19 -11 30 -9 75 12 29 14 58 25 65 25 6 0 24 5 40 11 15 6 50 12 76 14 68
3 76 14 93 120 2 17 6 39 8 50 1 11 -2 28 -8 38 -9 14 -6 22 19 42 26 21 37
23 81 18 73 -8 83 13 56 119 -5 20 -7 39 -4 42 3 3 5 19 4 36 0 17 5 30 11 30
7 0 4 5 -5 11 -10 5 -18 16 -18 22 0 7 -9 20 -20 30 -35 29 -21 60 41 93 35
17 52 56 44 95 -5 20 1 39 19 68 14 22 26 44 26 49 0 22 28 62 52 77 16 9 28
24 28 34 0 22 19 41 43 41 11 0 23 -13 33 -35 12 -30 17 -34 33 -26 15 8 24 4
48 -24 38 -43 47 -89 21 -112 -22 -20 -23 -39 -2 -51 39 -22 105 25 90 64 -8
20 10 44 34 44 9 0 25 -9 35 -20 37 -40 60 -17 29 29 -14 19 -14 27 -4 49 18
37 13 62 -20 97 -15 17 -31 41 -35 53 -6 20 -4 23 17 22 40 -4 47 -1 64 25 14
22 15 30 5 53 -8 17 -9 28 -2 30 7 2 6 11 -1 28 -14 30 13 87 50 103 19 9 22
16 17 39 -9 41 18 60 80 57 28 -1 57 -4 65 -6 11 -3 16 5 17 26 4 68 16 91 82
152 36 35 71 63 76 63 24 0 52 -31 64 -69 10 -34 16 -41 37 -41 15 0 43 13 63
28 46 35 79 51 115 54 20 2 30 9 32 22 4 26 45 68 61 62 17 -7 47 23 69 69 9
20 63 83 118 140 86 88 106 105 136 107 35 3 35 4 45 64 7 44 16 67 33 80 l23
19 -30 35 c-38 44 -38 61 -2 88 27 19 29 26 25 65 -4 41 -2 45 29 62 l33 17
-29 31 c-26 28 -27 32 -12 43 13 10 22 10 36 1 25 -16 30 -7 19 34 -8 28 -7
36 7 46 14 11 17 31 18 111 0 81 4 102 18 117 13 12 16 26 12 47 -5 21 0 44
18 81 14 29 30 71 37 94 6 24 19 47 30 53 13 7 20 21 20 38 0 16 5 33 12 40 8
8 9 21 0 49 -6 21 -9 48 -5 61 3 13 2 22 -3 21 -5 -1 -20 3 -34 8 l-25 11 26
10 c28 11 42 34 33 55 -3 8 0 26 6 41 8 23 7 34 -10 61 -11 18 -20 39 -20 47
0 8 -13 32 -30 54 -16 21 -30 44 -30 51 0 17 56 73 73 73 7 0 18 -5 23 -10 7
-7 19 -4 36 10 15 11 31 20 38 20 11 0 9 162 -5 450 -4 69 -8 175 -20 485 -3
66 -8 170 -11 230 -3 61 -1 121 4 135 5 13 6 40 1 60 -10 50 -19 146 -24 285
-3 66 -7 179 -10 250 -4 72 -8 177 -10 234 -3 57 -6 105 -7 107 -2 1 -15 -4
-30 -12z m-4571 -3216 c-3 -8 -6 -5 -6 6 -1 11 2 17 5 13 3 -3 4 -12 1 -19z
m8 -88 c3 -36 8 -73 11 -82 3 -9 7 -27 9 -40 12 -63 19 -87 41 -136 20 -46 27
-53 45 -47 34 11 112 65 193 135 l41 35 -41 -50 c-47 -57 -134 -185 -134 -197
0 -35 291 -110 385 -99 17 1 17 0 5 -8 -8 -6 -31 -11 -51 -11 -83 0 -277 -48
-317 -78 l-22 -17 21 -40 c12 -22 42 -66 68 -99 25 -32 55 -70 66 -84 11 -14
-12 1 -52 34 -39 32 -96 73 -126 91 l-56 32 -25 -52 c-13 -29 -31 -79 -40
-112 -14 -58 -32 -182 -28 -197 1 -5 -3 -8 -8 -8 -6 0 -10 17 -10 38 0 110
-63 322 -96 322 -21 0 -83 -39 -159 -99 l-70 -56 50 62 c28 34 65 87 82 118
l33 56 -55 24 c-80 36 -233 67 -332 69 -12 0 -20 2 -17 5 5 6 8 6 102 15 85 8
165 28 240 58 49 19 53 23 47 46 -7 30 -53 99 -112 169 -53 63 -55 72 -5 26
43 -41 181 -133 197 -133 32 0 83 173 100 341 4 43 4 43 9 38 2 -2 7 -33 11
-69z"/>
<path d="M5081 7304 c0 -11 3 -14 6 -6 3 7 2 16 -1 19 -3 4 -6 -2 -5 -13z"/>
<path d="M5146 7275 c10 -8 23 -15 28 -15 6 0 1 7 -10 15 -10 8 -23 15 -28 15
-6 0 -1 -7 10 -15z"/>
</g>
</svg>
